<svg width="105" height="31" viewBox="0 0 105 31" fill="none" xmlns="http://www.w3.org/2000/svg">
<path d="M-0.000976562 11.0002V30.6264H14.9064V26.265H5.25682V11.0002H-0.000976562Z" fill="white"/>
<path d="M22.1922 18.0719L17.8004 11.0002H11.955L19.4396 23.1809V30.6264H24.5427V23.1809L32.0274 11.0002H26.3675L22.1922 18.0719Z" fill="white"/>
<path d="M38.5351 11.0002H33.5247V30.6264H38.3495V19.0065L46.762 30.6264H50.9682V11.0002H46.1434V21.8725L38.5351 11.0002Z" fill="white"/>
<path d="M62.6639 31.0002C67.6743 31.0002 71.5403 28.5703 71.5403 22.8383V11.0002H66.2825V21.966C66.2825 24.9566 65.3856 26.5454 62.6639 26.5454C59.9732 26.5454 59.0453 24.9566 59.0453 21.966V11.0002H53.8185V22.8383C53.8185 28.5703 57.6536 31.0002 62.6639 31.0002Z" fill="white"/>
<path d="M79.5865 20.2526V15.237H82.6793C85.0299 15.237 85.9268 16.1093 85.9268 17.7604C85.9268 19.4115 85.0299 20.2526 82.6793 20.2526H79.5865ZM79.5865 24.4893H82.9268C88.0299 24.4893 90.999 22.0906 90.999 17.7292C90.999 13.399 88.0299 11.0002 82.9268 11.0002H74.3596V30.6264H79.5865V24.4893Z" fill="white"/>
<circle cx="98.5" cy="5.5" r="3.5" fill="#EC4B6F"/>
</svg>
